
<global>
amp_veltrack=0
ampeg_release=0.35
</global>

<group>
group_label=PP
lpc_hicc1=42
lpc_locc1=0

<region>
hikey=a3
hivel=127
lokey=g#3
lovel=1
lpc=aVQCQfUIs8H+x+RBeDixwZ/oQ0EYu8rAORaMQKScosDKl7lA28d6wE/lZr4M5D5AlYMdwO302D4LV/M/cCaCwMENtECc7a/Anp2AQO4Pqb8qitW/omAkQDtpuL8ItrU+
lpc_rms=-35.59
pitch_keycenter=a3
sample=Violin2Solo_trill_perf5th_PP_A3.opus
</region>

<region>
hikey=a4
hivel=127
lokey=g#4
lovel=1
lpc=hN6kQOvwPMGSMlxB5w5AwbmFFUHdwb3AaztBQFBw5r/E1PU/ys/uv012fT8ZwRo+3XIiv0ggmD7lboM+e8rzvLGyt71xpA4+tpSLPm0TDL5CHYa/kuy9PzMWQr+K1Xs+
lpc_rms=-35.42
pitch_keycenter=a4
sample=Violin2Solo_trill_perf5th_PP_A4.opus
</region>

<region>
hikey=a5
hivel=127
lokey=g#5
lovel=1
lpc=DdJ7QAfWtMAnc65Ah9M+wBBGGEAQ7vu/WagYQOEir78jQJs/2cLWvanbij+yVFW/nvGkPynHcT0VvQs/ybSvvgeYZz+BIgo/quOkv8rV/j8TxHW/NCw5P8arPr7LJYk/
lpc_rms=-29.41
pitch_keycenter=a5
sample=Violin2Solo_trill_perf5th_PP_A5.opus
</region>

<region>
hikey=a6
hivel=127
lokey=g#6
lovel=1
lpc=V9QlQaHzBMF6I7xABboUwHjlvEAeCys/AmXmv5nmgEB4Zp+8AoDrvwPBMUDWwta+coN3QEuOvMBwk1i/KAqfQJm7PMAtbAZARUmkwFtQUkApYT4/UMg+wOajf0CVALk8
lpc_rms=-27.37
pitch_keycenter=a6
sample=Violin2Solo_trill_perf5th_PP_A6.opus
</region>

<region>
hikey=b3
hivel=127
lokey=a#3
lovel=1
lpc=mBwNQbU9wsG0NPpBqqbGwdwZYEGEb/TAquu1QAo/rMBlDqRA1FWGwOFCCD8rm3ZAJxyUwEPdHEDw1YM8OD38v/JdkUD1ubTA4fFKQDwzjD8NE4jAn+SMQF77JcDPQEQ/
lpc_rms=-34.60
pitch_keycenter=b3
sample=Violin2Solo_trill_perf5th_PP_B3.opus
</region>

<region>
hikey=b4
hivel=127
lokey=a#4
lovel=1
lpc=NEaoQCdbRMH2AmtBWm07wYrh9kANl4XAgGf4P5hdJr8qkek+tT24villAj+IDdK+f89pPw+pjb+b6ck/jPIGwFDLKUCo7ijAyXQUQBD5JL/looK/f/vlP/6mrL/V8TY/
lpc_rms=-34.41
pitch_keycenter=b4
sample=Violin2Solo_trill_perf5th_PP_B4.opus
</region>

<region>
hikey=b5
hivel=127
lokey=a#5
lovel=1
lpc=A8KaQGTvBsHHKgVBVC+hwNP8MkBtsAPAwj88QBurq7/QLwo/jzkTPSYUtT9sXOu/uvAjQP315b/W2h1AVYYWwKNjnD9/DG4/Usc0v/BS7D080Tw/GrsPP3n8kb9ENBM/
lpc_rms=-27.50
pitch_keycenter=b5
sample=Violin2Solo_trill_perf5th_PP_B5.opus
</region>

<region>
hikey=b6
hivel=127
lokey=a#6
lovel=1
lpc=4WUWQTLEBMECRKRAD23APqMaakAQBFY+PJCdPzm9fD78PV/AwwTKQG5/cr8nZie/rabIwJu1xEAVCYy/c8apv+f/lr9tyaQ9Qag4PQh1Oz9oRI9AH8KfwMDP+z/7doY/
lpc_rms=-28.58
pitch_keycenter=B6
sample=Violin2Solo_trill_perf5th_PP_B6.opus
</region>

<region>
hikey=c#4
hivel=127
lokey=c4
lovel=1
lpc=xx6RQcNLUcIraodCLxZQwuce1kEQHVfBaTMyQeQvVMEkg1lBShIGwaf5hb4qjeJAoxMXwWcaDUEYYk7AEKN6wK5I5UC7OZHAof2eOzW7ikBZ/QbBhzMEQU5gkcBO55k/
lpc_rms=-28.92
pitch_keycenter=c#4
sample=Violin2Solo_trill_perf5th_PP_C#4.opus
</region>

<region>
hikey=c#5
hivel=127
lokey=c5
lovel=1
lpc=i3I8Qd5D2cFuIuBB3n2TwUGZNEEKWsXAT25tQO2w/8AvBBxBUJHqwF4QzUCv0I3A/a82vVwRez+W1T9A1XVvwP0SMkB9rAnAZDpTP/tp/j+sOCTA5Ot+Pve+mT9Sove+
lpc_rms=-26.82
pitch_keycenter=c#5
sample=Violin2Solo_trill_perf5th_PP_C#5.opus
</region>

<region>
hikey=c#6
hivel=127
lokey=c6
lovel=1
lpc=JPrZQMI2HcHxIQ5BjEeowNdxiUAfm6K/GmoOQHQ8uD4BwBI/v9QCP95hmj+WEUg/HK2HP1j2Ej/nNUC8vMOlP38GpT/R7bG9sRrtP+DMW7/3Ey5AOR2XwEf9iUDPaoC9
lpc_rms=-26.93
pitch_keycenter=c#6
sample=Violin2Solo_trill_perf5th_PP_C#6.opus
</region>

<region>
hikey=d#4
hivel=127
lokey=d4
lovel=1
lpc=kxwYQdTK0MGEEgVCj/bLwUyWY0HoJBHBeCD0QMQn3cAG0cpAbv2zwNlXg0DaIirAj36eP0XwI7/zHQxAS0CSwK4t2kBf68bA7HRZQA6dpb+VZTk/iJMMv2ShmDzAk1E+
lpc_rms=-30.98
pitch_keycenter=d#4
sample=Violin2Solo_trill_perf5th_PP_D#4.opus
</region>

<region>
hikey=d#5
hivel=127
lokey=d5
lovel=1
lpc=06a3QFwRScFRy2BBiscowVhgAEHTRrjAjPt+QP9fXMC7Nz5AFWyXv0amD7/ws9w/ZgwewFqx7T/ZCds+eOC0v6MYqj+tYJ2/MeedP4CIPD4wsFO+0BQlvyq0rT9yHwq/
lpc_rms=-32.55
pitch_keycenter=d#5
sample=Violin2Solo_trill_perf5th_PP_D#5.opus
</region>

<region>
hikey=d#6
hivel=127
lokey=d6
lovel=1
lpc=trG/QGwX68D0/fxAKA+MwAD1h0BacxTAXIuoQOR0CMCAV1dAToURv6M6H0AYok4/TUf6PzD377/e7bhAIYo4wBVZeUBNh3K/gVpNQOtcg8D61JJAAb/9v0yt9D+PWVI+
lpc_rms=-28.92
pitch_keycenter=d#6
sample=Violin2Solo_trill_perf5th_PP_D#6.opus
</region>

<region>
hikey=f4
hivel=127
lokey=e4
lovel=1
lpc=Z4IQQd4lvMGDqt1BuUGhwccKP0HpDvnAK3axQA0oosDBlaZAdm1NwNouPD8j20++1mo2vfocob5t9A1AP7QbwGhI6z8jeALAXz4eQEs6/r+40U69ta8RQOcDOcAH2bA/
lpc_rms=-31.79
pitch_keycenter=f4
sample=Violin2Solo_trill_perf5th_PP_F4.opus
</region>

<region>
hikey=f5
hivel=127
lokey=e5
lovel=1
lpc=eaJjQAoOsMC2BopA0B4TwO220j9+ZTu/kK62PkNfob+v6us/ey1vv4wVIj7H/ys+8zLmPtopxb+7iwJAXTiPv0zDDj/nLek+TO0Dv9ZR/T6dFZq90ApQvrwhzD2RjyS+
lpc_rms=-30.31
pitch_keycenter=f5
sample=Violin2Solo_trill_perf5th_PP_F5.opus
</region>

<region>
hikey=f6
hivel=127
lokey=e6
lovel=1
lpc=UsOyQO8FfMB4ATJAPD6fv7EODD7nCyZAPIYDQNli478PlgFArYiIv0YsnT/jOxu/G6E8PxTnMD5VHU2+SRSUP7cHmr9Af1LAOpf5P5CAGb9NkoS+ifjkP1a/fcABY4i9
lpc_rms=-32.98
pitch_keycenter=f6
sample=Violin2Solo_trill_perf5th_PP_F6.opus
</region>

<region>
hivel=127
key=g3
lovel=1
lpc=U3lXQQFSHMIgi0lCpG4awi/rskFVQ3XBTF9IQeqJCMGsor9AaLzlwFbH1EDQovW/vk+KPu0+WsDkzaJAykFIwL+rN0CiHI7A2ME8QJFFmj+2umLA60QtQKIBiL8ZQog+
lpc_rms=-31.79
sample=Violin2Solo_trill_perf5th_PP_G3.opus
</region>

<region>
hikey=g4
hivel=127
lokey=f#4
lovel=1
lpc=wY0LQST2s8GW19dBKdSZwV5aHEG87JvAnGYjQNxXJMCqRpFAGDCnwBJhN0DvS0S/ScaxvricfT82ggA/x+ZAwI6UoEC0u5jAnWFhQFwy678SkmU+kfV+PnH7Bz96jte+
lpc_rms=-32.49
pitch_keycenter=g4
sample=Violin2Solo_trill_perf5th_PP_G4.opus
</region>

<region>
hikey=g5
hivel=127
lokey=f#5
lovel=1
lpc=oM9PQNgAkcDxwnhAGhAZwF5r5D/Ufle/N2C1P/oz9L/SpxhAmpHAv7XTgj/AR8a+L2E9P5wI+r50UmM+BT9/PzpAgb+KiqM/zLPFvmCvwD6mxG2/Z8GgP7mOOr8gEUI/
lpc_rms=-31.10
pitch_keycenter=g5
sample=Violin2Solo_trill_perf5th_PP_G5.opus
</region>

<region>
hikey=g6
hivel=127
lokey=f#6
lovel=1
lpc=3g70QHTYBcEtuupAVwx3wK8PZEA3dTtAi2IdwEgXNUBX+WC+yIiUPzktdb+GNac/y35EP+F7dL/UvRJAzLjawG2aqEDk6RzARolYvv6l3z/JhL3AaZhjQJIwB8AoJ5E+
lpc_rms=-31.12
pitch_keycenter=g6
sample=Violin2Solo_trill_perf5th_PP_G6.opus
</region>
</group>

<group>
group_label=MF
lpc_hicc1=84
lpc_locc1=43

<region>
hikey=a3
hivel=127
lokey=g#3
lovel=1
lpc=ci4NQfFUvsFvbORBamubwStOB0EUXXDA3WtfQBuAjsDkhYZAuKMLwGs4UD1pfkg/0m2Yv/Nwfz9vdoU/GiM2wMzmQkDhtfe/Qzq2PupRnz+hgSbA4pg2QHSK7r//kCQ/
lpc_rms=-27.36
pitch_keycenter=a3
sample=Violin2Solo_trill_perf5th_MF_A3.opus
</region>

<region>
hikey=a4
hivel=127
lokey=g#4
lovel=1
lpc=RS11QPaz/8C2sAhBpqnJwHvhhkBu+yLAtECPPxIdXr+pOcE/M4mjv7BsDD++M0w+nZcKvy4J3T6/mx4/+arRv05SAkD5cOG/C6mlP+cm6r6oe9C+sC8fP8d1Ar5mNhE9
lpc_rms=-28.15
pitch_keycenter=a4
sample=Violin2Solo_trill_perf5th_MF_A4.opus
</region>

<region>
hikey=a5
hivel=127
lokey=g#5
lovel=1
lpc=VvJ0QGSvp8BykZlAHl4LwPsqqD9M+32/81rTP/E6ZL/kekI/OhLpPosK2j7nM4W+MgqiP5adpr7xaUA/haErPTUMPD4ET28/9f+Pv6vQuz/Iliy/rBJkPz5UMb9PF7c/
lpc_rms=-25.76
pitch_keycenter=a5
sample=Violin2Solo_trill_perf5th_MF_A5.opus
</region>

<region>
hikey=a6
hivel=127
lokey=g#6
lovel=1
lpc=mrjlQEYnuMAZPbtACinPv5g4jkBX1PC+G4Y0QP71LD8XSG9APraewCte1EDBGk7AexOzQPUs58DOmnJADMZPv4X35bwE3ZS/gS65vug3ir//61M/o2FxwG2QjUBdNta/
lpc_rms=-24.35
pitch_keycenter=a6
sample=Violin2Solo_trill_perf5th_MF_A6.opus
</region>

<region>
hikey=b3
hivel=127
lokey=a#3
lovel=1
lpc=iK8XQXD9y8FkFPlBvw20wUbxMEFAl7zAk2t4QFXjMMCNjjtADqsBwNoal77l6o4/gW/Ivmk/KLxJjdI/Ah1swDIrfEAPziLAfLEHQP+6DcCg+56/YJGmQEa+m8Bjv+I/
lpc_rms=-26.14
pitch_keycenter=b3
sample=Violin2Solo_trill_perf5th_MF_B3.opus
</region>

<region>
hikey=b4
hivel=127
lokey=a#4
lovel=1
lpc=F56lQCl8M8HSv0BBapUCwXN4nECrI2bA+4xMQF9YMsBVqjhAgf7sv2wiLz9+bSY9jNOwPu+WU7/idM0/RXrNv/FPzT/DI66/qWmsPy/Bc79r5LY+aKNkPTml/D17Qcq9
lpc_rms=-26.74
pitch_keycenter=b4
sample=Violin2Solo_trill_perf5th_MF_B4.opus
</region>

<region>
hikey=b5
hivel=127
lokey=a#5
lovel=1
lpc=WrusQH5/DMFbmgFBl3KZwCKFKkDsXKy/n7IHQOTVqr9vo7U/7pPivj7+gj8WII2/4RooQBbrFMA4lx9AHP+mvwXLmjy6/Io/8T9gPpc12b4ejQ8/SXU+P+khQ79G8IA+
lpc_rms=-21.51
pitch_keycenter=b5
sample=Violin2Solo_trill_perf5th_MF_B5.opus
</region>

<region>
hikey=b6
hivel=127
lokey=a#6
lovel=1
lpc=KAXpQNpBmMAEwGBA82uyP4VcgUBMbce+QUteQEGhoD99ui7A0HOCQJd+vT/4tdW+FhqgwEYZc0DZ35G+bHQCwKGCjr9Fe3o+Caayv9ZOIb//6W9AWi8mwOYLAr+oQr4/
lpc_rms=-25.50
pitch_keycenter=B6
sample=Violin2Solo_trill_perf5th_MF_B6.opus
</region>

<region>
hikey=c#4
hivel=127
lokey=c4
lovel=1
lpc=Ix6HQcYIP8J8FnNC5x87wiMszUElO2DB5HUaQd77HcEQ6zZByNsSwUh+EUC22kVALEJLwOlH+D9l0SM/I9BpwMpvzUCqgevANIjOQHUyaMB02xe/DXZHQN8nTcBEnKc/
lpc_rms=-20.51
pitch_keycenter=c#4
sample=Violin2Solo_trill_perf5th_MF_C#4.opus
</region>

<region>
hikey=c#5
hivel=127
lokey=c5
lovel=1
lpc=Ixn0QFv+isGdIZVBE3lcwcd+FkFek9PAcKuNQBMUg8A95JtAN6x3wOvguT9YwxM/93YUvxxKdL8Xdl1AB/eLwKLLZ0B/3iDAk53bP4DFir/5uYU/WZamv6jVez+pTA49
lpc_rms=-21.83
pitch_keycenter=c#5
sample=Violin2Solo_trill_perf5th_MF_C#5.opus
</region>

<region>
hikey=c#6
hivel=127
lokey=c6
lovel=1
lpc=45SkQAaJ3sAX38lAkSlNwOY5IkBaCRC/cPjOP+x+nD4ETSQ/6nURP8t6XT8YBwo/1k5yPw7/Qz8nVeW+04PGP5FYTj8GaQG/f2sSQB/gir8hXwxAqTk2wEvyBUBtJvE+
lpc_rms=-23.52
pitch_keycenter=c#6
sample=Violin2Solo_trill_perf5th_MF_C#6.opus
</region>

<region>
hikey=d#4
hivel=127
lokey=d4
lovel=1
lpc=uOwBQeRBrcHsFdBBEUGVweBBLkFtQgDBREG9QMXigsDQFqRA77DLwE0Ih0CtRvK/kBAOQDUBP8DO0hRACODNv4zUAUCgAAXA0xmeP+uwfD4ctMa/GSrvPxrdZ7/AMrE8
lpc_rms=-28.92
pitch_keycenter=d#4
sample=Violin2Solo_trill_perf5th_MF_D#4.opus
</region>

<region>
hikey=d#5
hivel=127
lokey=d5
lovel=1
lpc=Pu+YQJzHI8F0RCxByz/pwBBsk0CYry/A2E2KP3KEZb/O288/Vmcgv8ZlK78nta8/d5aHv5SNjDxZiQhAJ69PwMy0U0CfAirAW1nEP+SKuL6lXbw9iUcGvpJBmT4xdNy9
lpc_rms=-26.46
pitch_keycenter=d#5
sample=Violin2Solo_trill_perf5th_MF_D#5.opus
</region>

<region>
hikey=d#6
hivel=127
lokey=d6
lovel=1
lpc=XNe8QD5w3sDFQOFAO0g4wFlfP0Dd+YS/qMWBQAbSjL/CjhxAdXO8PlQZ3j8Xyas/eCe4P4YKe79wyI9Av9/Av/s+MEAs0F2+0fAjQLFRdcBgQ5dAmqoKwG154D95wDA9
lpc_rms=-24.15
pitch_keycenter=d#6
sample=Violin2Solo_trill_perf5th_MF_D#6.opus
</region>

<region>
hikey=f4
hivel=127
lokey=e4
lovel=1
lpc=c5vpQLZflsEfLa9BKTFvwaSt+UBaM6nAV892QGKKGMBFrBVAX60UwBTCgj+Ahj8/osHuv1Ggjj/NQ/c/MquRwAXanUCpmkDAj1mIP8buuj2M29e/hJdEQCLDKsDZBXw/
lpc_rms=-27.16
pitch_keycenter=f4
sample=Violin2Solo_trill_perf5th_MF_F4.opus
</region>

<region>
hikey=f5
hivel=127
lokey=e5
lovel=1
lpc=X2VpQD99zMAEdLNASe4+wCegtz8Llv++oZkgP0T1eL+qdGM/NuwIvl9Udry5z5Y9Gm71PjZ6pr8MSvw/UG61v0Bsej/OsAC+Ml5svfWEbD1IZH4+bdvhvecUo75MYGQ+
lpc_rms=-26.32
pitch_keycenter=f5
sample=Violin2Solo_trill_perf5th_MF_F5.opus
</region>

<region>
hikey=f6
hivel=127
lokey=e6
lovel=1
lpc=Wn2jQF5em8CJNpJAFn7kv0dJlz972hdAHvWeP124Kz5pbM4/VsH+PD2EEkAIJCS/TjzbPwNhNz/DIJI/jlAHPcp3DEDEp3vACzFgQB2Cir8diFQ/IX9uP+fs7b9GEAc8
lpc_rms=-25.63
pitch_keycenter=f6
sample=Violin2Solo_trill_perf5th_MF_F6.opus
</region>

<region>
hivel=127
key=g3
lovel=1
lpc=gIUjQS7U48EdNhFC0JLhwb30eUElbAjBrJ+tQJ6wTcAq0c4/5aA1vwFCDL6UKXM/+J1kv0JU6L6wfVRAbomvwGwgwkCbE6nAWLdkQI752796iTa/6KMuQDVKKcB8FIY/
lpc_rms=-23.21
sample=Violin2Solo_trill_perf5th_MF_G3.opus
</region>

<region>
hikey=g4
hivel=127
lokey=f#4
lovel=1
lpc=DInYQKPEg8HjQ5RBkaxGwYny0kA3jIjAdmFAQNpBIsCsGCJAC1AOwDLkYj+xIzI/cmLrv8E2mT8nZIg/+ysrwC9EO0BQ7OG/BTcnP5tq3T5tnK2/YS7lP2s7c7/1PTI+
lpc_rms=-29.25
pitch_keycenter=g4
sample=Violin2Solo_trill_perf5th_MF_G4.opus
</region>

<region>
hikey=g5
hivel=127
lokey=f#5
lovel=1
lpc=cnaLQK2u4sCIvM1AjhBqwNBfDEB55Ym/etp7P9seD7/NNu4+hpTWPropCr8S2RM+T3RhPz5vLb8qtv0+n8HgPkhJML5Hbio/LfsiviqFMT/VaBnAKDhMQPU26L9IQF0/
lpc_rms=-25.58
pitch_keycenter=g5
sample=Violin2Solo_trill_perf5th_MF_G5.opus
</region>

<region>
hikey=g6
hivel=127
lokey=f#6
lovel=1
lpc=hEe5QJuOicA69pdA2c+GvzwzEUBSdD5AnZx0v1auHUBrJHc/6yKtPzkGDL9zR4U+AY+iP75dU7+o5eY/MtarwID1OEBH9QzAhqUXvx8Gjj1Ixl/ATa9iP+symr/XD7C/
lpc_rms=-26.67
pitch_keycenter=g6
sample=Violin2Solo_trill_perf5th_MF_G6.opus
</region>
</group>

<group>
group_label=FF
lpc_hicc1=127
lpc_locc1=85

<region>
hikey=a3
hivel=127
lokey=g#3
lovel=1
lpc=VdEIQd0IwsHplQJCYaTWwaPCdEGGSP3Aj4ivQJVLlsDnYHFAsuUQwJVr4L4xOg9AE0f5v2ic7z4OgNM/xaV2wEcyt0BgaL7Ak0WAQFeFHb8lc7+/z7e5P2lCwL4yxcS9
lpc_rms=-23.53
pitch_keycenter=a3
sample=Violin2Solo_trill_perf5th_FF_A3.opus
</region>

<region>
hikey=a4
hivel=127
lokey=g#4
lovel=1
lpc=IuiFQMp2DMGTEBFBCWDJwLdWh0DohhzAxbdXP/9Ubb8cuNc/296Pv8ifYrx7UVE+0sx4PqVPH79MyKg/RCb8v2cqDkBJLNO/MzOXPz8UCr/BoUQ+O6HgvlqaWz/T6dG+
lpc_rms=-22.60
pitch_keycenter=a4
sample=Violin2Solo_trill_perf5th_FF_A4.opus
</region>

<region>
hikey=a5
hivel=127
lokey=g#5
lovel=1
lpc=MLtLQPU4dsCwZ4hAnC5KwGJUS0AMsQDA350PQGlf0b8a1BVAZBeXv+yUmj9MDiq/ZXryPxO4l7+s+8I/3wYWvpKDTz7rLCc/v5jwvrBGpj8qgim/naWePyvmR7/fR6g/
lpc_rms=-21.14
pitch_keycenter=a5
sample=Violin2Solo_trill_perf5th_FF_A5.opus
</region>

<region>
hikey=a6
hivel=127
lokey=g#6
lovel=1
lpc=a5IHQTma0MACMdNASIzCv2MTlUDe6iQ/NZ7FP26POUBOE8E/5wtKwA7IqUAsN8a/lJSCQD0GzcCCCAxAhFZeP2aP+L9+734+gtcfwFsGKT/8fl+/JRA/wDN6lkCpyATA
lpc_rms=-23.52
pitch_keycenter=a6
sample=Violin2Solo_trill_perf5th_FF_A6.opus
</region>

<region>
hikey=b3
hivel=127
lokey=a#3
lovel=1
lpc=cYoaQYMV3sHfghRCYNvywSgAk0GyuDfBNz0NQUll48A68Z1A6dIwwO/O8j7Us6U/LPkawBFJBUBz7IM/uWCZwMm2xUCekJDAdWcOQG9oO79tdyK/e4nIPyvbtL/pzgw/
lpc_rms=-22.76
pitch_keycenter=b3
sample=Violin2Solo_trill_perf5th_FF_B3.opus
</region>

<region>
hikey=b4
hivel=127
lokey=a#4
lovel=1
lpc=ayydQECYK8EvwT9BxGEJwWnipUDvtz3AcFK5P1si/L65dpk/VRKcv8MfLj9rDoI+SrI1vsiK6L1Sr4A/39C+vwk97j/vtbC/O2FiP1lIoL66VcG9zPTJPi02rr2+eD89
lpc_rms=-25.81
pitch_keycenter=b4
sample=Violin2Solo_trill_perf5th_FF_B4.opus
</region>

<region>
hikey=b5
hivel=127
lokey=a#5
lovel=1
lpc=fV+CQKwD0MAGGcVAH8yCwPoQL0BMwJ+/aaCtP2Mvbr/xtbc/hnU+vzMicT/vTSK/SDncP77gpb/jtpE/AHhSvqk8Mr9tCHM/vtSSPmTFv71nvig+BgPzPbGbez7JDY6+
lpc_rms=-18.79
pitch_keycenter=b5
sample=Violin2Solo_trill_perf5th_FF_B5.opus
</region>

<region>
hikey=b6
hivel=127
lokey=a#6
lovel=1
lpc=dr/+QNvqw8A6lm5APo8MQJv2OECjVpy/bst5QHGHOT/dZmLAvbWQQH84zD8lPCe/d5G3wNsUuEAcVBq/baDdvzNYO78jtfM/nCnwvz3zvbvrMqdASAgmwPCUcL9qnxtA
lpc_rms=-24.48
pitch_keycenter=B6
sample=Violin2Solo_trill_perf5th_FF_B6.opus
</region>

<region>
hikey=c#4
hivel=127
lokey=c4
lovel=1
lpc=hVBpQXA8KcIgMWVCAQ9EwvkI/0Hbt6TBBIpiQS+wKMEy/w1BqobPwOwulz85xS5AEWXsv5/MmL/nNqpAOAH+wGeFDEGtDQfBCczyQDsmocAHuLc/yrPhPQqYKD6Rio6+
lpc_rms=-17.30
pitch_keycenter=c#4
sample=Violin2Solo_trill_perf5th_FF_C#4.opus
</region>

<region>
hikey=c#5
hivel=127
lokey=c5
lovel=1
lpc=4SHcQPR0b8HKYX1B4M88wdk4/UAIDKHAiDoaQC++17935T1AY05cwH7l6j+ZmAG+6aoqP5jgqb+u75I/aPFqv3kp8z/xaN2/1vCRP8O2gb+UX7Y/K7kOwGh1zD8ZwOi8
lpc_rms=-19.22
pitch_keycenter=c#5
sample=Violin2Solo_trill_perf5th_FF_C#5.opus
</region>

<region>
hikey=c#6
hivel=127
lokey=c6
lovel=1
lpc=sK2iQHyZrMBsKIRApvGxv95C3T8DG7A+U81rP3BNCT+FV+E/e8i2vsBUzz+NaYk9PY7/P/bmJL5iAHg/FVaUPktXCEBktlq/e8wPQAYrDr9+ZAVAZh0CwB5v4D6Gg9M/
lpc_rms=-19.97
pitch_keycenter=c#6
sample=Violin2Solo_trill_perf5th_FF_C#6.opus
</region>

<region>
hikey=d#4
hivel=127
lokey=d4
lovel=1
lpc=bq0iQejB6cFuHBpChvv5wfMwl0Fd2jbB5WD7QDlGmcBk/y5AE+zWv2WO2L0OH+4/f+S+vztRbb+Ro2dAl6e3wLuZ6kBt3c7ApQxdQBZWHr8lLVy/WMCiP7RUhb+gBbw+
lpc_rms=-21.71
pitch_keycenter=d#4
sample=Violin2Solo_trill_perf5th_FF_D#4.opus
</region>

<region>
hikey=d#5
hivel=127
lokey=d5
lovel=1
lpc=r/CdQPJWJcGU4SZBcFPbwLpdh0DbwSnAxYfmP5NyA8AoPylAtD/Lv6xBAL+B4Nc/u/OCv5v8Wj1c/2w/oIjmvzaDB0D2C4e/KhiDPtlWy70zsHw/Xfumv9Nghz9Idvi+
lpc_rms=-23.08
pitch_keycenter=d#5
sample=Violin2Solo_trill_perf5th_FF_D#5.opus
</region>

<region>
hikey=d#6
hivel=127
lokey=d6
lovel=1
lpc=XtOeQPT3n8CXo7lAbuojwLo+QUBPoSq/dmeGQArZbr8jfElAbqIoPxsr4D+jQ/M/fxPNP4zhFj1yY29AjmYXvx0oP0A7egk/Cx35P6zYDMDCyoBAqvzrv8HsCECD/bE+
lpc_rms=-21.56
pitch_keycenter=d#6
sample=Violin2Solo_trill_perf5th_FF_D#6.opus
</region>

<region>
hikey=f4
hivel=127
lokey=e4
lovel=1
lpc=6kYWQftf2MHy0hRC5hcCwh0xp0EuP0HBcGf9QOg1uMD1FWRAJHH6vghIE8BTWTxANR3KvwAySL+CyXFASLfRwLGOAkEgDvLAcKqyQPCuNMDnQzg/FzYOvv54DLy6NVE+
lpc_rms=-21.96
pitch_keycenter=f4
sample=Violin2Solo_trill_perf5th_FF_F4.opus
</region>

<region>
hikey=f5
hivel=127
lokey=e5
lovel=1
lpc=PBd2QL4vz8CjmbFAWt1cwN5gIUA8J7+/sXxgPzUJCr8tN6q8zbFtP3OH8L6qxCM9r8eqPvnPYr/NMOU/kg2+v1pVmz99ERi/cJySPhHQwD5+ri2/5QVqP64Yp78mACc/
lpc_rms=-20.10
pitch_keycenter=f5
sample=Violin2Solo_trill_perf5th_FF_F5.opus
</region>

<region>
hikey=f6
hivel=127
lokey=e6
lovel=1
lpc=CiSfQJpNPMC2EzNA2LZEv5mOAT+JOB5AsL8KQAU7eb436vo/FGXdvqUe5z+hkK6+SALMP23fqT4OxjA/BNeAP8YXID8E8T7APEG3P7id0Tx0i2s8VEOpPxv03b/p1pe/
lpc_rms=-23.44
pitch_keycenter=f6
sample=Violin2Solo_trill_perf5th_FF_F6.opus
</region>

<region>
hivel=127
key=g3
lovel=1
lpc=zfYeQfkB3cH3lwxCo8XYwbF/akGJp/XALVuiQLxldsCc+jFAomKBv1cCZb/zWZU/qSYJPpc0zb+PRmNADV2xwNDcy0ALDp3ABHsyQIoQqr/PKIS/DZBaQHyWS8BnW5Q/
lpc_rms=-22.52
sample=Violin2Solo_trill_perf5th_FF_G3.opus
</region>

<region>
hikey=g4
hivel=127
lokey=f#4
lovel=1
lpc=sATnQGNqkcHm6a5BYQ2GwTzrMUFqBwbBMwjNQNwtosBMmZVA7qBxwLnhuz/5+908m/fzvlIZ1T3/K4A/iCYLwOLzMkAkENG/1ohYPr6sDT/6ckm+pYOMvuQzHT9gtXW+
lpc_rms=-24.61
pitch_keycenter=g4
sample=Violin2Solo_trill_perf5th_FF_G4.opus
</region>

<region>
hikey=g5
hivel=127
lokey=f#5
lovel=1
lpc=e78jQNETYsCWk0JASKjPv09WyT9QsY2/IO+cPyEzar+OIUc/duv8vYHYLT7eryc9iNHzPrsMZb4OSxU+iGfrPv2znL7bWOg+GQz2vDqGFz8aY5K/C4+cP00usL5DS1Q+
lpc_rms=-25.09
pitch_keycenter=g5
sample=Violin2Solo_trill_perf5th_FF_G5.opus
</region>

<region>
hikey=g6
hivel=127
lokey=f#6
lovel=1
lpc=Uvm0QFhbYcCZuVFAdoy1v2np/D92+VxAQfrhvtZgbT/meWw/mUVVP3xROD5Qoz4+CzaQP2NF0L6pxf4/m4iOwG71jT+BrYM9+dVEv0p+uj8NP3PAExTbvVEenj1KMCi/
lpc_rms=-26.76
pitch_keycenter=g6
sample=Violin2Solo_trill_perf5th_FF_G6.opus
</region>
</group>